<svg width="50" height="50" viewBox="0 0 50 50" fill="none" xmlns="http://www.w3.org/2000/svg">
<g clip-path="url(#clip0_97_2930)">
<path d="M25 50C38.8071 50 50 38.8071 50 25C50 11.1929 38.8071 0 25 0C11.1929 0 0 11.1929 0 25C0 38.8071 11.1929 50 25 50Z" fill="#7D2AE7"/>
<path d="M25 50C38.8071 50 50 38.8071 50 25C50 11.1929 38.8071 0 25 0C11.1929 0 0 11.1929 0 25C0 38.8071 11.1929 50 25 50Z" fill="url(#paint0_radial_97_2930)"/>
<path d="M25 50C38.8071 50 50 38.8071 50 25C50 11.1929 38.8071 0 25 0C11.1929 0 0 11.1929 0 25C0 38.8071 11.1929 50 25 50Z" fill="url(#paint1_radial_97_2930)"/>
<path d="M25 50C38.8071 50 50 38.8071 50 25C50 11.1929 38.8071 0 25 0C11.1929 0 0 11.1929 0 25C0 38.8071 11.1929 50 25 50Z" fill="url(#paint2_radial_97_2930)"/>
<path d="M25 50C38.8071 50 50 38.8071 50 25C50 11.1929 38.8071 0 25 0C11.1929 0 0 11.1929 0 25C0 38.8071 11.1929 50 25 50Z" fill="url(#paint3_radial_97_2930)"/>
<path d="M44.9401 26.3704C44.873 26.3704 44.8133 26.4154 44.7835 26.5049C44.378 27.6591 43.8306 28.348 43.3804 28.348C43.1217 28.348 43.0172 28.0596 43.0172 27.6067C43.0172 26.4775 43.6964 24.0795 44.0346 22.9849C44.0746 22.8721 44.0972 22.7538 44.1019 22.6342C44.1019 22.3158 43.9277 22.1591 43.4975 22.1591C43.0669 22.1591 42.5322 22.3431 42.0496 23.1939C41.8804 22.4426 41.373 22.1143 40.664 22.1143C39.8456 22.1143 39.0546 22.6416 38.4027 23.4949C37.7512 24.3481 36.9875 24.6317 36.4104 24.4924C36.8256 23.48 36.9775 22.7213 36.9775 22.1591C36.9775 21.276 36.5422 20.7436 35.8383 20.7436C34.7659 20.7436 34.149 21.766 34.149 22.8406C34.149 23.6715 34.5248 24.5272 35.3556 24.9426C34.6614 26.5122 33.6467 27.9328 33.2611 27.9328C32.7635 27.9328 32.6167 25.4999 32.6467 23.7586C32.6614 22.761 32.7461 22.7088 32.7461 22.4053C32.7461 22.2337 32.6317 22.1143 32.1814 22.1143C31.1293 22.1143 30.8009 23.0073 30.7535 24.0322C30.7354 24.4208 30.6746 24.8062 30.5719 25.1814C30.1293 26.7535 29.2238 27.9451 28.6317 27.9451C28.3556 27.9451 28.2835 27.6691 28.2835 27.3109C28.2835 26.1815 28.9154 24.766 28.9154 23.562C28.9154 22.674 28.5272 22.1143 27.7933 22.1143C26.9327 22.1143 25.7909 23.1416 24.7113 25.062C25.067 23.5919 25.2113 22.1665 24.1615 22.1665C23.9331 22.17 23.7088 22.228 23.5073 22.3357C23.363 22.4103 23.2859 22.5446 23.2959 22.6939C23.3954 24.2635 22.0322 28.2759 20.7386 28.2759C20.5023 28.2759 20.3904 28.0222 20.3904 27.6093C20.3904 26.4799 21.0645 24.0869 21.4028 22.9899C21.444 22.8705 21.4667 22.7455 21.47 22.6192C21.47 22.3207 21.2859 22.1665 20.8655 22.1665C20.4028 22.1665 19.9028 22.3431 19.4178 23.1939C19.2486 22.4426 18.7411 22.1143 18.0347 22.1143C16.873 22.1143 15.572 23.3431 15.0023 24.9476C14.2386 27.087 12.6988 29.1517 10.6267 29.1517C8.74609 29.1517 7.75357 27.587 7.75357 25.1168C7.75357 21.5446 10.3755 18.6292 12.3183 18.6292C13.2486 18.6292 13.6914 19.2213 13.6914 20.1292C13.6914 21.2287 13.0794 21.7387 13.0794 22.1566C13.0794 22.2834 13.1839 22.4103 13.3954 22.4103C14.2411 22.4103 15.2337 21.4178 15.2337 20.0645C15.2337 18.7113 14.1366 17.7188 12.1914 17.7188C8.97994 17.7188 5.74609 20.9526 5.74609 25.0944C5.74609 28.3904 7.37296 30.378 10.1839 30.378C12.1018 30.378 13.7784 28.888 14.6839 27.1441C14.7859 28.5893 15.4401 29.3406 16.4376 29.3406C17.3257 29.3406 18.0446 28.8133 18.5944 27.883C18.8058 28.8556 19.3655 29.3333 20.0944 29.3333C20.9302 29.3333 21.6267 28.8033 22.2909 27.8206C22.2809 28.592 22.4575 29.3183 23.1267 29.3183C23.4426 29.3183 23.8207 29.2462 23.8879 28.9701C24.5894 26.0571 26.3333 23.679 26.8656 23.679C27.0222 23.679 27.0646 23.8282 27.0646 24.0098C27.0646 24.8009 26.5072 26.4227 26.5072 27.4575C26.5072 28.5793 26.9825 29.3183 27.9651 29.3183C29.0546 29.3183 30.1614 27.9849 30.9004 26.0347C31.1317 27.8556 31.6317 29.3256 32.4104 29.3256C33.3704 29.3256 35.0746 27.3083 36.1067 25.169C36.5098 25.2213 37.1193 25.2088 37.7014 24.7959C37.4551 25.4252 37.3083 26.1143 37.3083 26.8009C37.3083 28.7859 38.2535 29.3406 39.0696 29.3406C39.9575 29.3406 40.6764 28.8133 41.2261 27.883C41.4077 28.7212 41.8704 29.3306 42.7238 29.3306C44.0569 29.3306 45.2161 27.9675 45.2161 26.848C45.2161 26.5522 45.0893 26.3704 44.9401 26.3704ZM17.2536 28.2435C16.7138 28.2435 16.5023 27.6988 16.5023 26.8904C16.5023 25.4874 17.4625 23.1392 18.4799 23.1392C18.9227 23.1392 19.0919 23.664 19.0919 24.3033C19.0919 25.7287 18.1789 28.2435 17.2536 28.2435ZM35.7064 24.0496C35.3854 23.6665 35.2685 23.1441 35.2685 22.6814C35.2685 22.1093 35.4775 21.6267 35.7288 21.6267C35.9798 21.6267 36.0546 21.873 36.0546 22.2163C36.0546 22.7884 35.8506 23.6292 35.7064 24.0496ZM39.883 28.2435C39.3456 28.2435 39.134 27.6193 39.134 26.8904C39.134 25.5347 40.0943 23.1392 41.1193 23.1392C41.5619 23.1392 41.7211 23.6566 41.7211 24.3033C41.7211 25.7287 40.8233 28.2435 39.883 28.2435Z" fill="white"/>
</g>
<defs>
<radialGradient id="paint0_radial_97_2930" cx="0" cy="0" r="1" gradientUnits="userSpaceOnUse" gradientTransform="translate(9.65586 44.3159) rotate(-49.4156) scale(38.6708)">
<stop stop-color="#6420FF"/>
<stop offset="1" stop-color="#6420FF" stop-opacity="0"/>
</radialGradient>
<radialGradient id="paint1_radial_97_2930" cx="0" cy="0" r="1" gradientUnits="userSpaceOnUse" gradientTransform="translate(13.2375 5.68224) rotate(54.7035) scale(43.6084)">
<stop stop-color="#00C4CC"/>
<stop offset="1" stop-color="#00C4CC" stop-opacity="0"/>
</radialGradient>
<radialGradient id="paint2_radial_97_2930" cx="0" cy="0" r="1" gradientUnits="userSpaceOnUse" gradientTransform="translate(9.65848 44.315) rotate(-45.1954) scale(38.2026 17.5699)">
<stop stop-color="#6420FF"/>
<stop offset="1" stop-color="#6420FF" stop-opacity="0"/>
</radialGradient>
<radialGradient id="paint3_radial_97_2930" cx="0" cy="0" r="1" gradientUnits="userSpaceOnUse" gradientTransform="translate(20.448 6.73891) rotate(66.5198) scale(39.3647 65.9447)">
<stop stop-color="#00C4CC" stop-opacity="0.725916"/>
<stop offset="0.0001" stop-color="#00C4CC"/>
<stop offset="1" stop-color="#00C4CC" stop-opacity="0"/>
</radialGradient>
<clipPath id="clip0_97_2930">
<rect width="50" height="50" fill="white"/>
</clipPath>
</defs>
</svg>
