<svg width="50" height="50" viewBox="0 0 50 50" fill="none" xmlns="http://www.w3.org/2000/svg">
<g clip-path="url(#clip0_68_1118)">
<path d="M25 0C11.1891 0 0 11.1891 0 25C0 38.8109 11.1891 50 25 50C38.8109 50 50 38.8109 50 25C50 11.1891 38.8109 0 25 0ZM14.5016 16C16.0719 16 17.2938 17.1453 17.4312 18.4984C17.5797 19.7188 17.0734 20.7859 15.7234 21.4281C15.0062 21.7859 14.7219 21.7859 14.575 21.5734C14.5016 21.4281 14.575 21.2906 14.7203 21.1422C16.0078 20.0781 16.0078 19.2156 15.8594 18.0031C15.7859 17.2141 15.2172 16.7156 14.6469 16.7156C12.1406 16.7156 8.57656 22.2828 9.07188 26.3594C9.29219 27.9297 10.2203 29.7859 12.2141 29.7859C12.8578 29.7859 13.575 29.5734 14.2156 29.2906C15.2578 28.7359 15.8844 28.3141 16.5031 27.6219C16.3484 25.7734 17.9672 23.3578 20.3594 23.3578C21.4344 23.3578 22.2891 23.7891 22.3609 24.5781C22.5 25.6453 21.5719 25.7906 21.2875 25.7906C21.0031 25.7906 20.4984 25.7172 20.4984 25.4328C20.4344 25.1469 21.1406 25.2875 21.075 24.6438C21.0016 24.2125 20.5703 24.075 20.1484 24.075C18.6422 24.075 17.7875 26.15 18 27.4266C18.0734 28.0031 18.3563 28.575 18.9359 28.575C19.3594 28.575 20.0031 27.9313 20.2125 27.0047C20.3578 26.3609 20.9297 25.9297 21.4328 25.9297C21.6453 25.9297 21.7828 26.0031 21.8563 26.2875V26.5734C21.7922 26.8594 21.5703 27.7219 21.6453 27.9312C21.6453 28.0797 21.7188 28.2891 22.0016 28.2891C22.1891 28.2891 22.9062 27.9141 23.6219 27.3281C23.8578 26.0984 24.1422 24.6266 24.1422 24.5047C24.2156 24 24.4281 23.5031 25.4281 23.5031C25.6469 23.5031 25.7859 23.5766 25.8594 23.8609V24.1469L25.5734 25.4328C26.5031 24.2203 27.8609 23.3656 28.7156 23.3656C29.0734 23.3656 29.3594 23.5766 29.3594 23.9344C29.3594 24.1469 29.3594 24.5047 29.2109 24.8641C28.9281 25.6453 28.5688 26.8656 28.3563 27.9312C28.3563 28.2172 28.4297 28.5016 28.7875 28.5016C29.1453 28.5016 30.2125 28.0781 31.0672 26.9312L31.0844 26.9234C31.0844 26.7844 31.0672 26.6469 31.0672 26.5094C31.0672 25.6469 31.1406 24.9391 31.2875 24.4344C31.4328 23.8641 32.1422 23.3672 32.5734 23.3672C32.7844 23.3672 33.0047 23.5047 33.0047 23.7172C33.0047 23.7906 33.0047 23.9359 32.9313 24.0031C32.6453 24.9391 32.425 25.7922 32.425 26.6469C32.425 27.1516 32.5 27.8594 32.6453 28.2906C32.6453 28.3641 32.7094 28.4359 32.7828 28.4359C32.9313 28.4359 33.9313 27.5094 34.6391 26.2875C33.9953 25.8641 33.6375 25.1484 33.6375 24.2938C33.6375 22.7891 34.575 22.0062 35.4297 22.0062C36.1469 22.0062 36.7156 22.5047 36.7156 23.5047C36.7156 24.1484 36.5031 24.8656 36.1469 25.5062H36.3578C36.8141 25.5234 37.2625 25.3359 37.5703 25.0109C37.6384 24.9023 37.7382 24.8172 37.8563 24.7672C38.5563 23.8797 39.5812 23.2219 40.7938 23.2219C41.7938 23.2219 42.7141 23.6531 42.7875 24.4344C42.9328 25.5078 41.9984 25.7203 41.7125 25.7203C41.4297 25.7203 40.925 25.6469 40.925 25.3625C40.925 25.0781 41.5672 25.2172 41.5016 24.5813C41.4281 24.15 40.9969 24.0047 40.5656 24.0047C39.1406 24.0047 38.2141 25.8594 38.4234 27.3656C38.4969 27.9344 38.7812 28.5781 39.3531 28.5781C39.7844 28.5781 40.4266 27.9344 40.7109 27.0078C40.8484 26.4391 41.4281 25.9328 41.9234 25.9328C42.1422 25.9328 42.2812 26.0063 42.3547 26.2906C42.3547 26.4391 42.3547 26.7219 42.0687 27.6516C41.7109 28.2938 41.7109 28.6516 41.7859 28.9375C41.85 29.5063 42.1359 29.9375 42.4281 30.15C42.4801 30.2164 42.5266 30.287 42.5672 30.3609C42.5672 30.5094 42.4922 30.6547 42.2812 30.6547C42.2078 30.6547 42.1422 30.6547 42.0687 30.5813C40.9953 30.15 40.5641 29.4328 40.425 28.7172C39.9937 29.2219 39.4984 29.5063 38.9203 29.5063C37.9906 29.5063 37.0719 28.6516 36.9266 27.5766C36.8834 27.1207 36.9361 26.6608 37.0812 26.2266C36.6578 26.4953 36.2016 26.65 35.7797 26.65H35.4297C34.4937 28.0078 33.4922 28.9375 32.7844 29.3609C32.5407 29.4911 32.2712 29.5658 31.9953 29.5797C31.8578 29.5797 31.6391 29.5063 31.5719 29.3609C31.3703 29.0438 31.2469 28.5469 31.1656 27.9781C30.1641 29.0672 28.7797 29.6531 28.1391 29.6531C27.4219 29.6531 27 29.2219 26.9266 28.5078V27.7266C27.1375 26.1563 27.7156 25.2203 27.7156 24.9344C27.7115 24.8967 27.6944 24.8617 27.6673 24.8352C27.6403 24.8088 27.6049 24.7924 27.5672 24.7891C27.0719 24.7891 25.4281 26.5063 25.1422 27.6531L24.9234 28.5797C24.7844 29.2219 24.1422 29.6531 23.7109 29.6531C23.4984 29.6531 23.3531 29.5797 23.2875 29.2969V29.0109L23.3766 28.5234C22.4719 29.1656 21.5688 29.5797 21.1375 29.5797C20.4953 29.5797 20.1375 29.2219 20.0734 28.7172C19.6422 29.2969 19.1437 29.5797 18.5031 29.5797C17.7609 29.5797 17.0469 29.075 16.7047 28.3438C16.1906 28.9203 15.6125 29.4984 14.9297 29.9375C13.9297 30.5812 12.7906 31.0766 11.4297 31.0766C10.2172 31.0766 9.14375 30.4328 8.57344 29.8641C7.71094 29.075 7.21563 27.8625 7.14219 26.7219C6.71875 23.2234 8.85938 18.7219 12.1375 16.7203C12.9266 16.2891 13.7172 16.0063 14.4984 16.0063L14.5016 16ZM34.8547 22.8609C34.6437 22.8609 34.4984 23.2188 34.4984 23.5672C34.4984 24.1469 34.7812 24.7875 35.1406 25.1469C35.2842 24.7559 35.3588 24.343 35.3609 23.9266C35.3609 23.2203 35.075 22.8625 34.8547 22.8625V22.8609Z" fill="black"/>
</g>
<defs>
<clipPath id="clip0_68_1118">
<rect width="50" height="50" fill="white"/>
</clipPath>
</defs>
</svg>
