<svg width="37" height="45" viewBox="0 0 37 45" fill="none" xmlns="http://www.w3.org/2000/svg">
<path opacity="0.6" d="M18.3066 3.16699H11.3608C9.51893 3.16699 7.7525 3.89867 6.4501 5.20107C5.1477 6.50348 4.41602 8.26991 4.41602 10.1118C4.41602 11.9537 5.1477 13.7201 6.4501 15.0225C7.7525 16.3249 9.51893 17.0566 11.3608 17.0566H18.3066V3.16699Z" fill="black"/>
<path opacity="0.4" d="M18.3056 17.0566H11.3598C9.51817 17.0566 7.752 17.7882 6.44979 19.0904C5.14759 20.3926 4.41602 22.1588 4.41602 24.0004C4.41602 25.842 5.14759 27.6082 6.44979 28.9104C7.752 30.2126 9.51817 30.9441 11.3598 30.9441H18.3056V17.0566Z" fill="black"/>
<path d="M32.1943 24.0005C32.1943 25.8423 31.4626 27.6088 30.1602 28.9112C28.8578 30.2136 27.0914 30.9452 25.2495 30.9452C23.4076 30.9452 21.6412 30.2136 20.3388 28.9112C19.0364 27.6088 18.3047 25.8423 18.3047 24.0005C18.3047 22.1586 19.0364 20.3921 20.3388 19.0897C21.6412 17.7873 23.4076 17.0557 25.2495 17.0557C27.0914 17.0557 28.8578 17.7873 30.1602 19.0897C31.4626 20.3921 32.1943 22.1586 32.1943 24.0005Z" fill="black"/>
<path opacity="0.2" d="M11.3606 30.9454H18.3064V37.8892C18.306 39.2624 17.8985 40.6046 17.1353 41.7461C16.3722 42.8877 15.2877 43.7774 14.019 44.3027C12.7503 44.828 11.3543 44.9653 10.0075 44.6973C8.66077 44.4293 7.4237 43.7681 6.45273 42.7971C5.48175 41.8261 4.82046 40.589 4.55247 39.2423C4.28448 37.8955 4.42181 36.4995 4.94711 35.2308C5.47241 33.9621 6.36208 32.8776 7.50366 32.1145C8.64523 31.3513 9.98745 30.9459 11.3606 30.9454Z" fill="black"/>
<path opacity="0.8" d="M18.3047 3.16699H25.2484C27.0903 3.16699 28.8567 3.89867 30.1591 5.20107C31.4615 6.50348 32.1932 8.26991 32.1932 10.1118C32.1932 11.9537 31.4615 13.7201 30.1591 15.0225C28.8567 16.3249 27.0903 17.0566 25.2484 17.0566H18.3047V3.16699Z" fill="black"/>
</svg>
