<svg width="50" height="50" viewBox="0 0 50 50" fill="none" xmlns="http://www.w3.org/2000/svg">
<path fill-rule="evenodd" clip-rule="evenodd" d="M10.4173 2.08301C8.20718 2.08301 6.08756 2.96098 4.52476 4.52378C2.96196 6.08659 2.08398 8.2062 2.08398 10.4163V39.583C2.08398 41.7931 2.96196 43.9128 4.52476 45.4756C6.08756 47.0384 8.20718 47.9163 10.4173 47.9163H39.584C41.7941 47.9163 43.9137 47.0384 45.4765 45.4756C47.0393 43.9128 47.9173 41.7931 47.9173 39.583V10.4163C47.9173 8.2062 47.0393 6.08659 45.4765 4.52378C43.9137 2.96098 41.7941 2.08301 39.584 2.08301H10.4173ZM15.909 27.2705L34.8486 8.33301H22.7298L9.85065 21.2122L15.9132 27.2726L15.909 27.2705ZM24.7236 23.0038L27.2736 20.4538H36.3652L29.2694 27.5497L24.7236 23.0038ZM22.7382 34.0997L27.6632 29.1768L27.6527 29.1663L27.6632 29.1559L23.1173 24.6101L18.1819 29.5455L22.7382 34.0997ZM40.1527 41.6663H30.3048L24.3465 35.708L29.2694 30.783L40.1527 41.6663Z" fill="black"/>
</svg>
