<svg width="24" height="24" viewBox="0 0 24 24" fill="none" xmlns="http://www.w3.org/2000/svg">
<path fill-rule="evenodd" clip-rule="evenodd" d="M5 1C3.93913 1 2.92172 1.42143 2.17157 2.17157C1.42143 2.92172 1 3.93913 1 5V19C1 20.0609 1.42143 21.0783 2.17157 21.8284C2.92172 22.5786 3.93913 23 5 23H19C20.0609 23 21.0783 22.5786 21.8284 21.8284C22.5786 21.0783 23 20.0609 23 19V5C23 3.93913 22.5786 2.92172 21.8284 2.17157C21.0783 1.42143 20.0609 1 19 1H5ZM6.91 4.5L12 9.59H6.91V14.682L12.364 20.5V14.682H17.091L12.001 9.591H17.091V4.5H6.91Z" fill="black"/>
</svg>
