<svg width="40" height="50" viewBox="0 0 40 50" fill="none" xmlns="http://www.w3.org/2000/svg">
<g clip-path="url(#clip0_97_2940)">
<path d="M40 9.79785H0L3.7499 45.9077L19.998 49.9999L36.246 45.9077L40 9.79785Z" fill="#E6A329"/>
<path d="M19.998 12.7402V46.9403L33.1627 43.6285L36.3652 12.7402H19.998Z" fill="#F1BF22"/>
<path d="M30.4715 17.1699H10.2302L8.82031 30.6884L8.84933 30.6044H26.0454L25.4854 36.3242L19.9987 37.7258L14.4312 36.3016L14.0977 32.8397H9.04383L9.76479 39.7572L19.9987 42.337L30.2373 39.7572L31.6471 26.179H13.3971L13.6313 21.655H26.2934L26.4828 24.247H31.5794L30.4715 17.1699Z" fill="white"/>
<path d="M20.0028 17.1699H10.2302L8.82031 30.6884L8.84933 30.6044H20.0023V26.1943H14.1089L14.3431 21.6704H20.0028V17.1699ZM14.1089 32.8419H9.04332L9.76428 39.7558L19.9982 42.3329V37.7321L14.4307 36.3043L14.1089 32.8419Z" fill="#EBEBEB"/>
<path d="M16.1089 4.47196H12.5479V6.74208H18.6577V0H16.1119L16.1089 4.47196ZM27.4512 0.03617H21.2437V2.39626C22.0726 3.13232 22.5048 3.48633 23.7258 4.55244H21.2437V6.70455H27.4507V4.55606L24.9712 2.39988H27.4533L27.4512 0.03617Z" fill="#231F20"/>
</g>
<defs>
<clipPath id="clip0_97_2940">
<rect width="40" height="50" fill="white"/>
</clipPath>
</defs>
</svg>
