<svg width="50" height="50" viewBox="0 0 50 50" fill="none" xmlns="http://www.w3.org/2000/svg">
<path d="M1.5625 1.5625V48.4375H48.4375V1.5625H1.5625ZM27.0719 38.1219C27.0719 42.6844 24.3969 44.7594 20.4937 44.7594C16.9719 44.7594 14.9266 42.9344 13.8875 40.7344L17.475 38.5625C18.1672 39.775 18.7969 40.8125 20.3062 40.8125C21.7531 40.8125 22.6656 40.2609 22.6656 38.0469V23.0781H27.0719V38.1219ZM37.4875 44.7594C33.3969 44.7594 30.7531 42.8094 29.4641 40.2594L33.05 38.1859C33.9938 39.7141 35.2219 40.8578 37.3937 40.8578C39.2172 40.8578 40.3672 39.9453 40.3672 38.6766C40.3672 37.1672 39.1703 36.6297 37.1578 35.7625L36.0641 35.2781C32.8859 33.9266 30.7781 32.2266 30.7781 28.6375C30.7781 25.3359 33.2844 22.8172 37.2281 22.8172C40.0281 22.8172 42.0406 23.7938 43.4906 26.3391L40.0687 28.5344C39.3187 27.1906 38.4969 26.6437 37.2375 26.6437C35.95 26.6437 35.125 27.4594 35.125 28.5344C35.125 29.8656 35.9375 30.3906 37.8281 31.2062L38.9266 31.6906C42.6719 33.2844 44.7812 34.925 44.7812 38.6125C44.7922 42.5875 41.6781 44.7531 37.4922 44.7531L37.4875 44.7594Z" fill="black"/>
</svg>
