<svg width="60" height="60" viewBox="0 0 60 60" fill="none" xmlns="http://www.w3.org/2000/svg">
<rect width="60" height="60" rx="30" fill="black"/>
<path d="M37.2896 34.5156C37.2896 36.1094 36.7713 37.4818 35.7349 38.6328C34.6984 39.7839 33.3521 40.4948 31.6958 40.7656V43.5C31.6958 43.6458 31.6489 43.7656 31.5552 43.8594C31.4614 43.9531 31.3416 44 31.1958 44H29.0864C28.951 44 28.8338 43.9505 28.7349 43.8516C28.6359 43.7526 28.5864 43.6354 28.5864 43.5V40.7656C27.8989 40.6719 27.2349 40.5104 26.5942 40.2812C25.9536 40.0521 25.425 39.8203 25.0083 39.5859C24.5916 39.3516 24.2062 39.1016 23.8521 38.8359C23.4979 38.5703 23.2557 38.375 23.1255 38.25C22.9953 38.125 22.9041 38.0312 22.8521 37.9688C22.675 37.75 22.6646 37.5365 22.8208 37.3281L24.4302 35.2188C24.5031 35.1146 24.6229 35.0521 24.7896 35.0312C24.9458 35.0104 25.0708 35.0573 25.1646 35.1719L25.1958 35.2031C26.3729 36.2344 27.6385 36.8854 28.9927 37.1562C29.3781 37.2396 29.7635 37.2812 30.1489 37.2812C30.9927 37.2812 31.7349 37.0573 32.3755 36.6094C33.0161 36.1615 33.3364 35.526 33.3364 34.7031C33.3364 34.4115 33.2583 34.1354 33.1021 33.875C32.9458 33.6146 32.7713 33.3958 32.5786 33.2188C32.3859 33.0417 32.0812 32.8464 31.6646 32.6328C31.2479 32.4193 30.9041 32.2526 30.6333 32.1328C30.3625 32.013 29.9458 31.8438 29.3833 31.625C28.9771 31.4583 28.6567 31.3281 28.4224 31.2344C28.188 31.1406 27.8677 31.0026 27.4614 30.8203C27.0552 30.638 26.7297 30.4766 26.4849 30.3359C26.2401 30.1953 25.9458 30.0104 25.6021 29.7812C25.2583 29.5521 24.9797 29.3307 24.7661 29.1172C24.5526 28.9036 24.326 28.6484 24.0864 28.3516C23.8468 28.0547 23.6619 27.7526 23.5317 27.4453C23.4015 27.138 23.2922 26.7917 23.2036 26.4062C23.1151 26.0208 23.0708 25.6146 23.0708 25.1875C23.0708 23.75 23.5812 22.4896 24.6021 21.4062C25.6229 20.3229 26.951 19.625 28.5864 19.3125V16.5C28.5864 16.3646 28.6359 16.2474 28.7349 16.1484C28.8338 16.0495 28.951 16 29.0864 16H31.1958C31.3416 16 31.4614 16.0469 31.5552 16.1406C31.6489 16.2344 31.6958 16.3542 31.6958 16.5V19.25C32.2896 19.3125 32.8651 19.4323 33.4224 19.6094C33.9797 19.7865 34.4328 19.9609 34.7817 20.1328C35.1307 20.3047 35.4614 20.5 35.7739 20.7188C36.0864 20.9375 36.2896 21.0885 36.3833 21.1719C36.4771 21.2552 36.5552 21.3281 36.6177 21.3906C36.7948 21.5781 36.8208 21.776 36.6958 21.9844L35.4302 24.2656C35.3468 24.4219 35.2271 24.5052 35.0708 24.5156C34.925 24.5469 34.7843 24.5104 34.6489 24.4062C34.6177 24.375 34.5422 24.3125 34.4224 24.2188C34.3026 24.125 34.0994 23.987 33.813 23.8047C33.5265 23.6224 33.2218 23.4557 32.8989 23.3047C32.576 23.1536 32.188 23.0182 31.7349 22.8984C31.2817 22.7786 30.8364 22.7188 30.3989 22.7188C29.4093 22.7188 28.6021 22.9427 27.9771 23.3906C27.3521 23.8385 27.0396 24.4167 27.0396 25.125C27.0396 25.3958 27.0838 25.6458 27.1724 25.875C27.2609 26.1042 27.4146 26.3203 27.6333 26.5234C27.8521 26.7266 28.0578 26.8984 28.2505 27.0391C28.4432 27.1797 28.7349 27.3411 29.1255 27.5234C29.5161 27.7057 29.8312 27.8464 30.0708 27.9453C30.3104 28.0443 30.675 28.1875 31.1646 28.375C31.7166 28.5833 32.1385 28.7474 32.4302 28.8672C32.7218 28.987 33.1177 29.1693 33.6177 29.4141C34.1177 29.6589 34.5109 29.8802 34.7974 30.0781C35.0838 30.276 35.4067 30.5365 35.7661 30.8594C36.1255 31.1823 36.4015 31.513 36.5942 31.8516C36.7869 32.1901 36.951 32.5885 37.0864 33.0469C37.2218 33.5052 37.2896 33.9948 37.2896 34.5156Z" fill="white"/>
</svg>
