<svg width="42" height="42" viewBox="0 0 42 42" fill="none" xmlns="http://www.w3.org/2000/svg">
<g clip-path="url(#clip0_68_1109)">
<path d="M17.7715 17.8329C17.803 18.4655 17.6118 19.0891 17.2312 19.5954C16.8506 20.1016 16.3046 20.4584 15.6881 20.6038C14.6006 20.9249 13.4664 21.0588 12.334 20.9996C12.0423 20.9996 12.0215 20.8121 12.0215 20.6038V15.2913C12.0215 15.1454 12.1673 14.8954 12.2507 14.8954C13.4424 14.762 14.6483 14.8396 15.8132 15.1246C16.3994 15.2853 16.9131 15.6414 17.2692 16.1339C17.6254 16.6265 17.8026 17.2259 17.7715 17.8329Z" fill="black"/>
<path d="M31.416 0.166992H10.5827C7.82001 0.166992 5.17049 1.26446 3.21699 3.21796C1.26348 5.17147 0.166016 7.82099 0.166016 10.5837V31.417C0.166016 34.1797 1.26348 36.8292 3.21699 38.7827C5.17049 40.7362 7.82001 41.8337 10.5827 41.8337H31.416C34.1787 41.8337 36.8282 40.7362 38.7817 38.7827C40.7352 36.8292 41.8327 34.1797 41.8327 31.417V10.5837C41.8327 7.82099 40.7352 5.17147 38.7817 3.21796C36.8282 1.26446 34.1787 0.166992 31.416 0.166992ZM18.916 23.0837C17.8646 23.7514 16.6596 24.1388 15.416 24.2087H12.6243C12.041 24.2087 12.041 24.2087 12.041 24.7712V29.6045C12.041 30.0212 11.916 30.1462 11.4993 30.1462H8.74935C8.35352 30.1462 8.24935 30.0003 8.24935 29.6253V12.0628C8.24935 11.6462 8.24935 11.5212 8.77018 11.5212H15.291C16.4813 11.5534 17.6433 11.8906 18.666 12.5003C19.5492 12.998 20.2846 13.7211 20.797 14.5959C21.3094 15.4706 21.5805 16.4657 21.5827 17.4795C21.7032 18.5692 21.5175 19.6709 21.0464 20.6609C20.5754 21.6508 19.8376 22.4898 18.916 23.0837ZM31.2494 29.9587C29.4376 30.6645 27.4539 30.8026 25.5618 30.3545C24.9938 30.2295 24.4382 30.0628 23.8952 29.8545C23.8114 29.8152 23.7378 29.7572 23.68 29.685C23.6222 29.6127 23.5818 29.5282 23.5618 29.4378V26.292C24.2285 26.542 24.8535 26.8337 25.4994 27.042C26.5817 27.3879 27.7277 27.4876 28.8535 27.3337C29.0785 27.292 29.2938 27.2225 29.4994 27.1253C29.6214 27.0719 29.7276 26.9876 29.8074 26.8809C29.8873 26.7742 29.938 26.6486 29.9548 26.5163C29.9716 26.3841 29.9538 26.2498 29.9032 26.1265C29.8526 26.0032 29.7709 25.8951 29.666 25.8128C29.1894 25.4829 28.6797 25.2036 28.1452 24.9795C27.291 24.5628 26.416 24.2295 25.6035 23.7503C24.8699 23.3934 24.271 22.8094 23.8957 22.0851C23.5203 21.3607 23.3887 20.5346 23.5202 19.7295C23.6261 18.9546 23.9481 18.2252 24.4491 17.6246C24.9502 17.0241 25.6101 16.5767 26.3535 16.3337C27.6934 15.8806 29.1231 15.7591 30.5202 15.9795C31.1869 15.9795 31.8327 16.2295 32.4994 16.3545C32.8535 16.3545 32.9785 16.6462 32.9577 17.0003V19.4378C32.9577 19.8962 32.8535 19.9378 32.4369 19.7712C31.1357 19.1687 29.6973 18.9242 28.2702 19.0628C28.068 19.0863 27.871 19.1426 27.6869 19.2295C27.5619 19.2786 27.4519 19.3594 27.3678 19.4641C27.2836 19.5687 27.2283 19.6935 27.2073 19.8262C27.1862 19.9588 27.2002 20.0946 27.2478 20.2201C27.2953 20.3457 27.3749 20.4566 27.4785 20.542C28.0813 20.9434 28.7132 21.2906 29.3744 21.5837C30.166 21.9795 30.9994 22.292 31.7702 22.7295C32.4696 23.0478 33.0491 23.5813 33.4238 24.2522C33.7986 24.9231 33.9492 25.6962 33.8535 26.4587C33.7877 27.2193 33.5055 27.9452 33.0404 28.5506C32.5752 29.1561 31.9465 29.6157 31.2285 29.8753L31.2494 29.9587Z" fill="black"/>
</g>
<defs>
<clipPath id="clip0_68_1109">
<rect width="42" height="42" fill="white"/>
</clipPath>
</defs>
</svg>
