<svg width="50" height="50" viewBox="0 0 50 50" fill="none" xmlns="http://www.w3.org/2000/svg">
<g clip-path="url(#clip0_97_2913)">
<path d="M38.2812 0H11.7188C5.24666 0 0 5.24666 0 11.7188V38.2812C0 44.7533 5.24666 50 11.7188 50H38.2812C44.7533 50 50 44.7533 50 38.2812V11.7188C50 5.24666 44.7533 0 38.2812 0Z" fill="#001E36"/>
<path d="M11.25 34.773V13.3355C11.25 13.1896 11.3125 13.1064 11.4584 13.1064C11.8125 13.1064 12.1459 13.1064 12.625 13.0855C13.125 13.0646 13.6459 13.0646 14.2084 13.0439C14.7709 13.023 15.375 13.023 16.0209 13.0021C16.6666 12.9814 17.2916 12.9814 17.9166 12.9814C19.625 12.9814 21.0416 13.1896 22.2084 13.6271C23.2542 13.9824 24.2078 14.566 25 15.3355C25.6712 16.0092 26.1898 16.8191 26.5209 17.7105C26.8334 18.5855 27 19.4814 27 20.4189C27 22.2106 26.5833 23.6898 25.75 24.8564C24.9166 26.023 23.75 26.898 22.3959 27.398C20.9791 27.9189 19.4166 28.1064 17.7084 28.1064C17.2084 28.1064 16.875 28.1064 16.6666 28.0855C16.4582 28.0646 16.1666 28.0646 15.7709 28.0646V34.7521C15.7916 34.898 15.6875 35.023 15.5416 35.0439H11.5C11.3334 35.0439 11.25 34.9605 11.25 34.773ZM15.7916 17.1271V24.1271C16.0834 24.148 16.3541 24.1689 16.6041 24.1689H17.7084C18.5209 24.1689 19.3334 24.0439 20.1041 23.7939C20.7709 23.6064 21.3541 23.2105 21.8125 22.6896C22.25 22.1689 22.4584 21.4605 22.4584 20.5439C22.478 19.8929 22.3117 19.2497 21.9791 18.6896C21.625 18.148 21.125 17.7314 20.5209 17.5021C19.75 17.1896 18.9166 17.0646 18.0625 17.0855C17.5209 17.0855 17.0416 17.0855 16.6459 17.1064C16.2291 17.0855 15.9375 17.1064 15.7916 17.1271ZM40 22.8564C39.375 22.523 38.7084 22.2939 38 22.148C37.2291 21.9814 36.4584 21.8771 35.6666 21.8771C35.25 21.8564 34.8125 21.9189 34.4166 22.023C34.1459 22.0855 33.9166 22.2314 33.7709 22.4396C33.6666 22.6064 33.6041 22.8146 33.6041 23.0021C33.6041 23.1896 33.6875 23.3771 33.8125 23.5439C34 23.773 34.25 23.9605 34.5209 24.1064C35.0039 24.3565 35.4974 24.5859 36 24.7939C37.125 25.1689 38.2084 25.6896 39.2084 26.3146C39.8959 26.7521 40.4584 27.3355 40.8541 28.0439C41.1875 28.7105 41.3541 29.4396 41.3334 30.1896C41.3541 31.1689 41.0625 32.148 40.5209 32.9605C39.9398 33.7922 39.1289 34.4365 38.1875 34.8146C37.1666 35.2521 35.9166 35.4814 34.4166 35.4814C33.4584 35.4814 32.5209 35.398 31.5834 35.2105C30.8486 35.0837 30.134 34.8595 29.4584 34.5439C29.3125 34.4605 29.2084 34.3146 29.2291 34.148V30.523C29.2291 30.4605 29.25 30.3771 29.3125 30.3355C29.375 30.2939 29.4375 30.3146 29.5 30.3564C30.3125 30.8355 31.1666 31.1689 32.0834 31.3771C32.875 31.5855 33.7084 31.6896 34.5416 31.6896C35.3334 31.6896 35.8959 31.5855 36.2709 31.398C36.6041 31.2521 36.8334 30.898 36.8334 30.523C36.8334 30.2314 36.6666 29.9605 36.3334 29.6896C36 29.4189 35.3125 29.1064 34.2916 28.7105C33.2444 28.3414 32.25 27.8372 31.3334 27.2105C30.6805 26.7453 30.1395 26.1403 29.75 25.4396C29.4166 24.773 29.25 24.0439 29.2709 23.3146C29.2709 22.4189 29.5209 21.5646 29.9791 20.7939C30.5 19.9605 31.2709 19.2939 32.1666 18.8771C33.1459 18.3771 34.375 18.148 35.8541 18.148C36.7084 18.148 37.5834 18.2105 38.4375 18.3355C39.0625 18.4189 39.6666 18.5855 40.2291 18.8146C40.3125 18.8355 40.3959 18.9189 40.4375 19.0021C40.4584 19.0855 40.4791 19.1689 40.4791 19.2521V22.648C40.4791 22.7314 40.4375 22.8146 40.375 22.8564C40.1875 22.898 40.0834 22.898 40 22.8564Z" fill="#31A8FF"/>
</g>
<defs>
<clipPath id="clip0_97_2913">
<rect width="50" height="50" fill="white"/>
</clipPath>
</defs>
</svg>
