<svg width="50" height="50" viewBox="0 0 50 50" fill="none" xmlns="http://www.w3.org/2000/svg">
<path d="M1.33984 3.07292C1.33984 4.76875 2.73151 6.14583 4.44401 6.14583H30.1878C33.1211 6.14583 35.5378 7.04167 37.4378 8.83333C39.335 10.6264 40.2836 12.9319 40.2836 15.75C40.2836 18.3542 39.3343 20.4875 37.4357 22.15C35.5385 23.7736 33.1225 24.5847 30.1878 24.5833H19.0003C17.2836 24.5833 15.894 25.9583 15.894 27.6562C15.894 29.3542 17.2836 30.7292 19.0003 30.7292H31.3544L42.4836 48.4C43.1739 49.4667 44.1447 50 45.3961 50C46.778 50 47.7489 49.4667 48.3086 48.4C48.8683 47.2889 48.7607 46.1153 47.9857 44.8792L38.0836 29.1292C40.7586 27.9333 42.8725 26.1833 44.4253 23.8792C45.9794 21.5319 46.7565 18.8222 46.7565 15.75C46.7565 12.6333 46.044 9.90139 44.619 7.55417C43.2398 5.20694 41.2989 3.37153 38.7961 2.04792C36.2933 0.682639 33.4239 0 30.1878 0H4.44609C2.73151 0 1.33984 1.375 1.33984 3.07292Z" fill="black"/>
</svg>
