<svg width="50" height="50" viewBox="0 0 50 50" fill="none" xmlns="http://www.w3.org/2000/svg">
<g clip-path="url(#clip0_97_2909)">
<path d="M38.2812 0H11.7188C5.24666 0 0 5.24666 0 11.7188V38.2812C0 44.7533 5.24666 50 11.7188 50H38.2812C44.7533 50 50 44.7533 50 38.2812V11.7188C50 5.24666 44.7533 0 38.2812 0Z" fill="#470137"/>
<path d="M26.2186 15.6669L20.3592 25.3349L26.6092 35.5888C26.6483 35.6669 26.6678 35.745 26.6483 35.8232C26.6288 35.9013 26.5506 35.8427 26.4334 35.8622H21.9608C21.6483 35.8622 21.4334 35.8427 21.2967 35.6474C20.8866 34.8271 20.4569 34.0263 20.0467 33.206C19.6366 32.4052 19.1873 31.5849 18.7186 30.745C18.2498 29.9052 17.7811 29.0653 17.3123 28.206H17.2733C16.8631 29.0458 16.4139 29.8857 15.9647 30.7255C15.5155 31.5653 15.0663 32.4052 14.6366 33.2255C14.1873 34.0458 13.7381 34.8857 13.2889 35.6864C13.2108 35.8817 13.0545 35.9013 12.8397 35.9013H8.54282C8.46469 35.9013 8.4061 35.9403 8.4061 35.8427C8.38657 35.7646 8.4061 35.6864 8.44516 35.6278L14.5194 25.6669L8.60141 15.6474C8.54282 15.5692 8.52329 15.4911 8.56235 15.4521C8.60141 15.3935 8.67954 15.3739 8.75766 15.3739H13.1913C13.2889 15.3739 13.3866 15.3935 13.4647 15.413C13.5428 15.4521 13.6014 15.5107 13.66 15.5888C14.0311 16.4286 14.4608 17.2685 14.91 18.1083C15.3788 18.9482 15.828 19.7685 16.3163 20.5888C16.785 21.4091 17.2147 22.2294 17.6248 23.0692H17.6639C18.0741 22.2099 18.5038 21.37 18.9334 20.5497C19.3631 19.7294 19.8123 18.9091 20.2616 18.0888C20.7108 17.2685 21.1405 16.4286 21.5702 15.6278C21.5897 15.5497 21.6288 15.4716 21.6873 15.4325C21.7655 15.3935 21.8436 15.3739 21.9413 15.3935H26.0623C26.16 15.3739 26.2577 15.4325 26.2772 15.5302C26.2967 15.5497 26.2577 15.6278 26.2186 15.6669ZM35.242 36.2726C33.7967 36.2921 32.3514 35.9991 31.0428 35.3937C29.8123 34.8273 28.7967 33.8898 28.0936 32.7374C27.3709 31.546 27.0194 30.0616 27.0194 28.2843C26.9999 26.839 27.3709 25.4132 28.0936 24.1632C28.8358 22.8937 29.91 21.839 31.1991 21.1358C32.5663 20.3741 34.2069 20.003 36.1405 20.003C36.2381 20.003 36.3749 20.003 36.5506 20.0226C36.7264 20.0421 36.9217 20.0421 37.1561 20.0616V13.8898C37.1561 13.753 37.2147 13.6749 37.3514 13.6749H41.3163C41.4139 13.6554 41.492 13.7335 41.5116 13.8116V32.4444C41.5116 32.796 41.5311 33.1866 41.5506 33.6163C41.5897 34.0265 41.6092 34.4171 41.6288 34.7491C41.6288 34.8858 41.5702 35.003 41.4334 35.0616C40.4178 35.4913 39.3436 35.8038 38.2499 35.9991C37.2538 36.1749 36.2577 36.2726 35.242 36.2726ZM37.1561 32.3663V23.7726C36.9803 23.7335 36.8045 23.6944 36.6288 23.6749C36.4139 23.6554 36.1991 23.6358 35.9842 23.6358C35.2225 23.6358 34.4608 23.7921 33.7772 24.1437C33.1131 24.4757 32.5467 24.964 32.117 25.589C31.6873 26.214 31.4725 27.0538 31.4725 28.0694C31.453 28.753 31.5702 29.4366 31.8045 30.0812C31.9999 30.6085 32.2928 31.0773 32.6834 31.4679C33.0545 31.8194 33.5038 32.0929 34.0116 32.2491C34.5389 32.4249 35.0858 32.503 35.6327 32.503C35.9256 32.503 36.1991 32.4835 36.453 32.464C36.7069 32.4835 36.9217 32.4444 37.1561 32.3663Z" fill="#FF61F6"/>
</g>
<defs>
<clipPath id="clip0_97_2909">
<rect width="50" height="50" fill="white"/>
</clipPath>
</defs>
</svg>
