<svg width="50" height="50" viewBox="0 0 50 50" fill="none" xmlns="http://www.w3.org/2000/svg">
<g clip-path="url(#clip0_68_1107)">
<path d="M8.85391 0.625C3.9582 0.625 0 4.58359 0 9.47969V40.5203C0 45.4164 3.9582 49.375 8.85391 49.375H41.1461C46.0418 49.375 50 45.4164 50 40.5203V9.47969C50 4.58359 46.0418 0.625 41.1461 0.625H8.85391ZM38.1668 11.3125H42.3957C42.5 11.2918 42.5832 11.375 42.6039 11.4582V31.3328C42.6039 31.7078 42.625 32.125 42.6461 32.5832C42.6875 33.0207 42.7086 33.4367 42.7293 33.791C42.7293 33.9367 42.6668 34.0621 42.5207 34.1246C41.4296 34.5833 40.2906 34.9187 39.125 35.1246C38.0625 35.3121 37 35.416 35.9168 35.416C34.3754 35.4367 32.8336 35.125 31.4375 34.4793C30.125 33.875 29.0414 32.8746 28.2914 31.6457C27.5203 30.3746 27.1461 28.7914 27.1461 26.8957C27.1248 25.354 27.5205 23.8353 28.2914 22.5C29.0828 21.1457 30.2289 20.0211 31.6039 19.2711C33.0625 18.4586 34.8125 18.0625 36.875 18.0625C36.9793 18.0625 37.125 18.0625 37.3125 18.0832C37.5 18.1039 37.7086 18.1043 37.9586 18.1254V11.5418C37.9586 11.3961 38.0211 11.3129 38.1668 11.3129V11.3125ZM7.6668 13.125H12.3953C12.4996 13.125 12.6043 13.1461 12.6875 13.1668C12.7711 13.2086 12.8336 13.2711 12.8961 13.3543C13.2918 14.2504 13.7496 15.1457 14.2289 16.0418C14.7289 16.9375 15.2086 17.8125 15.7297 18.6875C16.2233 19.5541 16.6886 20.4364 17.125 21.3332H17.1668C17.6016 20.4291 18.0531 19.5331 18.5211 18.6457C18.985 17.7664 19.457 16.8913 19.9371 16.0207C20.4164 15.1457 20.8746 14.25 21.3332 13.3957C21.3543 13.3125 21.3957 13.2289 21.4582 13.1875C21.5418 13.1457 21.625 13.1254 21.7293 13.1461H26.1254C26.15 13.1406 26.1754 13.14 26.2003 13.1443C26.2251 13.1486 26.2489 13.1578 26.2701 13.1714C26.2914 13.1849 26.3098 13.2025 26.3242 13.2232C26.3387 13.2439 26.3489 13.2672 26.3543 13.2918C26.375 13.3129 26.3332 13.3961 26.2918 13.4375L20.0418 23.75L26.7082 34.6875C26.75 34.7711 26.7707 34.8539 26.75 34.9375C26.7293 35.0207 26.6453 34.9586 26.5203 34.9793H21.75C21.4168 34.9793 21.1875 34.9586 21.0418 34.7504C20.6043 33.8754 20.1457 33.0207 19.7082 32.1457C19.2707 31.2914 18.7914 30.4172 18.2914 29.5211C17.787 28.6208 17.287 27.7181 16.7914 26.8129H16.7504C16.3129 27.7086 15.8332 28.6039 15.3543 29.5C14.875 30.3957 14.3957 31.2914 13.9375 32.1664C13.4582 33.0414 12.9793 33.9375 12.5 34.7914C12.4168 35 12.25 35.0211 12.0207 35.0211H7.4375C7.3543 35.0211 7.2918 35.0629 7.2918 34.9586C7.28241 34.9195 7.28128 34.8789 7.28848 34.8393C7.29567 34.7998 7.31104 34.7622 7.33359 34.7289L13.8125 24.1043L7.5 13.4164C7.4375 13.3328 7.41719 13.2496 7.45898 13.2082C7.50039 13.1457 7.58359 13.125 7.6668 13.125ZM36.7082 21.9375C35.8957 21.9375 35.0832 22.1043 34.3543 22.4793C33.6424 22.8341 33.033 23.3648 32.5836 24.0211C32.1254 24.6879 31.8961 25.5836 31.8961 26.6672C31.8783 27.3982 31.9983 28.126 32.25 28.8125C32.4586 29.375 32.7711 29.875 33.1875 30.2918C33.5889 30.6752 34.0738 30.9604 34.6039 31.125C35.1664 31.3125 35.75 31.3957 36.3336 31.3957C36.6461 31.3957 36.9379 31.3754 37.2086 31.3547C37.4793 31.3754 37.7086 31.3332 37.9586 31.25V22.0832C37.7728 22.0389 37.5848 22.0043 37.3953 21.9797C37.1664 21.9586 36.9375 21.9375 36.7082 21.9375Z" fill="black"/>
</g>
<defs>
<clipPath id="clip0_68_1107">
<rect width="50" height="50" fill="white"/>
</clipPath>
</defs>
</svg>
